<?xml version="1.0" encoding="UTF-8" standalone="no"?>
<!-- Created with Inkscape (http://www.inkscape.org/) -->

<svg
   xmlns:dc="http://purl.org/dc/elements/1.1/"
   xmlns:cc="http://creativecommons.org/ns#"
   xmlns:rdf="http://www.w3.org/1999/02/22-rdf-syntax-ns#"
   xmlns:svg="http://www.w3.org/2000/svg"
   xmlns="http://www.w3.org/2000/svg"
   xmlns:sodipodi="http://sodipodi.sourceforge.net/DTD/sodipodi-0.dtd"
   xmlns:inkscape="http://www.inkscape.org/namespaces/inkscape"
   width="45"
   height="45"
   id="svg2"
   version="1.1"
   inkscape:version="0.47 r22583"
   sodipodi:docname="Shootingman.svg">
  <defs
     id="defs4">
    <inkscape:path-effect
       effect="skeletal"
       id="path-effect2933"
       is_visible="true"
       pattern="M 0,0 1,0"
       copytype="single_stretched"
       prop_scale="1"
       scale_y_rel="false"
       spacing="0"
       normal_offset="0"
       tang_offset="0"
       prop_units="false"
       vertical_pattern="false"
       fuse_tolerance="0" />
    <inkscape:perspective
       sodipodi:type="inkscape:persp3d"
       inkscape:vp_x="0 : 526.18109 : 1"
       inkscape:vp_y="0 : 1000 : 0"
       inkscape:vp_z="744.09448 : 526.18109 : 1"
       inkscape:persp3d-origin="372.04724 : 350.78739 : 1"
       id="perspective10" />
    <inkscape:perspective
       id="perspective2884"
       inkscape:persp3d-origin="0.5 : 0.33333333 : 1"
       inkscape:vp_z="1 : 0.5 : 1"
       inkscape:vp_y="0 : 1000 : 0"
       inkscape:vp_x="0 : 0.5 : 1"
       sodipodi:type="inkscape:persp3d" />
  </defs>
  <sodipodi:namedview
     id="base"
     pagecolor="#ffffff"
     bordercolor="#666666"
     borderopacity="1.0"
     inkscape:pageopacity="0.0"
     inkscape:pageshadow="2"
     inkscape:zoom="8"
     inkscape:cx="23.318832"
     inkscape:cy="17.32262"
     inkscape:document-units="px"
     inkscape:current-layer="layer1"
     showgrid="false"
     inkscape:window-width="1422"
     inkscape:window-height="744"
     inkscape:window-x="16"
     inkscape:window-y="4"
     inkscape:window-maximized="0" />
  <metadata
     id="metadata7">
    <rdf:RDF>
      <cc:Work
         rdf:about="">
        <dc:format>image/svg+xml</dc:format>
        <dc:type
           rdf:resource="http://purl.org/dc/dcmitype/StillImage" />
        <dc:title></dc:title>
      </cc:Work>
    </rdf:RDF>
  </metadata>
  <g
     inkscape:label="Content Layer"
     inkscape:groupmode="layer"
     id="layer1"
     transform="translate(0,-1007.3622)"
     style="display:inline">
    <rect
       style="fill:#6a6a6a;fill-opacity:1;stroke:#6a6a6a;stroke-opacity:1"
       id="rect3759"
       width="3.125"
       height="19.9375"
       x="22.75"
       y="6.8125"
       transform="translate(0,1007.3622)"
       rx="3.1530334e-14"
       ry="6.25" />
    <path
       style="fill:#0c2609;fill-opacity:1;stroke:#0c2609;stroke-opacity:1"
       d="m 26.793832,34.929251 c -1.185937,-0.0217 -2.16629,-0.04414 -2.178561,-0.04987 -0.01227,-0.0057 -0.0029,-0.05964 0.02083,-0.119791 0.02373,-0.06016 0.122668,-0.410601 0.219862,-0.778767 0.174986,-0.662839 0.175884,-0.675687 0.09175,-1.3125 -0.235484,-1.782375 -0.753777,-3.321758 -1.482044,-4.401827 l -0.216591,-0.321219 1.769191,-0.04575 1.769192,-0.04575 0.243465,0.210722 c 0.133907,0.115896 1.060719,0.981734 2.059585,1.924083 l 1.816118,1.713361 0.03718,0.974139 c 0.02045,0.535776 0.05066,1.276482 0.06714,1.646013 l 0.02996,0.671875 -1.045411,-0.01263 c -0.574977,-0.0069 -2.015724,-0.03039 -3.201662,-0.05208 z"
       id="path3786"
       transform="translate(0,1007.3622)" />
    <path
       style="fill:#0c2609;stroke:none;stroke-width:1px;stroke-linecap:butt;stroke-linejoin:miter;stroke-opacity:1;fill-opacity:1"
       d="M 9.375,35.5 1.6875,35.625 1.25,30.4375 c 3.1018413,-2.819457 6.6903733,-5.054885 10.625,-6.875 3.68142,-2.059015 7.163735,-3.321607 10.6875,-4.75 l 0,4.25 C 20.922001,23.567834 19.642288,24.433955 19,25.9375 11.748037,24.72975 7.9940027,29.593756 9.375,35.5 z"
       id="path3782"
       transform="translate(0,1007.3622)"
       sodipodi:nodetypes="cccccccc" />
    <path
       style="fill:#105508;fill-opacity:1;stroke:#105508;stroke-width:0.07015950000000000;stroke-opacity:1"
       d="m 14.497993,1048.0977 c -1.885621,-0.3267 -3.501452,-1.5078 -4.5347418,-3.3143 -0.5450509,-0.953 -1.1027879,-2.6791 -1.2286133,-3.8023 -0.044105,-0.3938 -0.040002,-0.4063 0.307824,-0.9315 0.1938898,-0.2927 0.478309,-0.6641 0.6320425,-0.8249 1.0704626,-1.1199 2.9462656,-1.6737 6.0123546,-1.7741 1.125261,-0.037 1.495316,-0.02 2.476312,0.115 3.210737,0.4395 4.41508,1.0293 5.93451,2.9058 l 0.324764,0.4011 -0.220866,0.7619 c -0.552505,1.9056 -1.263474,3.29 -2.227723,4.3374 -1.006195,1.093 -2.162981,1.7119 -3.765165,2.0147 -0.671933,0.127 -3.185349,0.2026 -3.710698,0.1116 z"
       id="path3761" />
    <path
       style="fill:#aa8227;fill-opacity:0.99607843;stroke:#a57d26;stroke-width:0.06250000000000000;stroke-opacity:1"
       d="m 23.40404,31.905744 c -1.177513,-1.082156 -2.664077,-1.586827 -5.751471,-1.952558 -0.818744,-0.09699 -1.064807,-0.100819 -2.1875,-0.03406 -2.658609,0.158088 -4.21412,0.552113 -5.32436,1.348707 -0.1701546,0.122086 -0.3184491,0.212898 -0.3295429,0.201804 -0.011094,-0.01109 0.067479,-0.270313 0.1746062,-0.576044 0.8340867,-2.380401 2.1255167,-3.808784 4.0207037,-4.447091 1.451689,-0.488935 3.255159,-0.51442 5.030237,-0.07109 2.212256,0.552524 3.656359,1.92749 4.412847,4.201585 0.199364,0.59931 0.445939,1.650632 0.397609,1.695283 -0.01215,0.01122 -0.211555,-0.15372 -0.443129,-0.36654 z"
       id="path3764"
       transform="translate(0,1007.3622)" />
    <path
       style="fill:none;stroke:#000000;stroke-width:1px;stroke-linecap:butt;stroke-linejoin:miter;stroke-opacity:1"
       d="m 8.8388348,33.256977 c 0.7983543,-3.857174 2.4592722,-7.109043 7.7011442,-7.202414 5.174414,0.09096 7.432805,2.095901 7.95622,7.202414 -1.251638,5.739014 -4.232601,7.278239 -7.828682,7.323606 C 12.51109,41.022665 9.293086,38.32521 8.8388348,33.256977 z"
       id="path2943"
       transform="translate(0,1007.3622)"
       sodipodi:nodetypes="ccccc" />
    <path
       style="fill:none;stroke:#000000;stroke-width:1px;stroke-linecap:butt;stroke-linejoin:miter;stroke-opacity:1"
       d="m 8.7125657,33.762053 c 1.1332297,-1.838969 1.8102563,-3.352085 8.2074903,-3.409265 5.947703,0.573003 5.856885,1.763916 7.702412,3.535534"
       id="path2945"
       transform="translate(0,1007.3622)"
       sodipodi:nodetypes="ccc" />
    <path
       style="fill:none;stroke:#000000;stroke-width:1px;stroke-linecap:butt;stroke-linejoin:miter;stroke-opacity:1"
       d="m 9.217642,35.52982 c -2.6029097,0.01772 -5.6904458,0.277752 -7.7024132,0 -0.2854279,-1.239001 -0.2969753,-3.025763 -0.2525381,-4.924494 2.7723916,-2.999424 6.287815,-5.139053 9.7214493,-6.815991 3.137869,-1.714062 7.685659,-3.547083 11.491754,-4.927032"
       id="path2951"
       transform="translate(0,1007.3622)"
       sodipodi:nodetypes="ccccc" />
    <path
       style="fill:none;stroke:#000000;stroke-width:1px;stroke-linecap:butt;stroke-linejoin:miter;stroke-opacity:1"
       d="m 22.349625,23.029182 c -1.008257,0.384494 -2.733156,1.39698 -3.409265,2.77792"
       id="path2953"
       transform="translate(0,1007.3622)"
       sodipodi:nodetypes="cc" />
    <path
       style="fill:none;stroke:#404040;stroke-width:1px;stroke-linecap:butt;stroke-linejoin:miter;stroke-opacity:1"
       d="M 24.496199,6.4879341 24.622468,26.943523"
       id="path2957"
       transform="translate(0,1007.3622)" />
    <path
       style="fill:none;stroke:#404040;stroke-width:1px;stroke-linecap:butt;stroke-linejoin:miter;stroke-opacity:1"
       d="m 26.390235,27.196061 0.126269,-20.8343959 -4.04061,0.126269 0.126269,20.5818579"
       id="path2955"
       transform="translate(0,1007.3622)"
       sodipodi:nodetypes="cccc" />
    <path
       style="fill:none;stroke:#000000;stroke-width:1px;stroke-linecap:butt;stroke-linejoin:miter;stroke-opacity:1"
       d="m 23.738585,35.403551 c 4.240938,0.04209 7.560481,0.08418 7.828682,0.126269 0.665234,-1.34687 0.158067,-2.69374 -0.126269,-4.04061 l -4.419417,-4.16688 -4.924494,0.126269"
       id="path2947"
       transform="translate(0,1007.3622)"
       sodipodi:nodetypes="ccccc" />
    <rect
       style="fill:#000000;fill-opacity:1;stroke:#000000;stroke-opacity:1"
       id="rect3791"
       width="0.044194173"
       height="0.22097087"
       x="14.495689"
       y="1036.8501"
       rx="3.1530334e-14"
       ry="0.22097087" />
    <rect
       style="fill:#000000;fill-opacity:1;stroke:#000000;stroke-opacity:1"
       id="rect3793"
       width="0.044194173"
       height="0.30935922"
       x="18.473166"
       y="1036.8501"
       rx="3.1530334e-14"
       ry="0.22097087" />
  </g>
</svg>
